<svg xmlns="http://www.w3.org/2000/svg" width="23.969" height="23" viewBox="0 0 23.969 23">
  <defs>
    <style>
      .cls-1 {
        fill: #fff;
        fill-rule: evenodd;
      }
    </style>
  </defs>
  <path id="Forma_1" data-name="Forma 1" class="cls-1" d="M268.07,4342a1.056,1.056,0,0,1,.8.44c0.336,0.42-.326,4.22-0.571,5.12-0.97,3.57-1.107,7.56-2.056,11.12-0.395,1.48-.25,3.07-0.8,4.36a1.592,1.592,0,0,1-.913.32,7.281,7.281,0,0,0-1.485-.54,20.978,20.978,0,0,0-4.8-1.85c-0.491.81-2.988,3.95-4,4.03a1.31,1.31,0,0,1-.571-0.55c-0.386-.58-0.127-3.92-0.114-4.9a4.018,4.018,0,0,0,.913-1.09c0.959-1.23,2.1-2.34,3.084-3.6,2.253-2.88,5.218-5.38,7.309-8.39h-0.114a14.736,14.736,0,0,1-3.083,2.51c-2.258,1.62-4.141,3.82-6.4,5.45a25,25,0,0,0-4.454,3.59c-1.38-.56-2.859-1.19-4.226-1.74-0.613-.25-1.207-0.2-1.485-0.76a1.4,1.4,0,0,1-.114-0.77c5.07-2.97,10.448-5.74,15.532-8.72,1.786-1.04,3.632-1.93,5.368-2.94A19.622,19.622,0,0,0,268.07,4342Z" transform="translate(-245 -4342)"/>
</svg>
